HIERARCHY
ROOT RootJoint
{
    OFFSET   0.000000   0.000000   0.000000
    CHANNELS 6 Xposition Yposition Zposition Yrotation Xrotation Zrotation
    JOINT lHip
    {
        OFFSET   0.100000  -0.051395   0.000000
        CHANNELS 3 Yrotation Xrotation Zrotation
        JOINT lKnee
        {
            OFFSET   0.000000  -0.410000   0.000000
            CHANNELS 3 Yrotation Xrotation Zrotation
            JOINT lAnkle
            {
                OFFSET   0.000000  -0.390000   0.000000
                CHANNELS 3 Yrotation Xrotation Zrotation
                JOINT lToeJoint
                {
                    OFFSET   0.000000  -0.050000   0.130000
                    CHANNELS 3 Yrotation Xrotation Zrotation
                    End Site
                    {
                        OFFSET   0.010000   0.002000   0.060000
                    }
                }
            }
        }
    }
    JOINT rHip
    {
        OFFSET  -0.100000  -0.051395   0.000000
        CHANNELS 3 Yrotation Xrotation Zrotation
        JOINT rKnee
        {
            OFFSET   0.000000  -0.410000   0.000000
            CHANNELS 3 Yrotation Xrotation Zrotation
            JOINT rAnkle
            {
                OFFSET   0.000000  -0.390000   0.000000
                CHANNELS 3 Yrotation Xrotation Zrotation
                JOINT rToeJoint
                {
                    OFFSET   0.000000  -0.050000   0.130000
                    CHANNELS 3 Yrotation Xrotation Zrotation
                    End Site
                    {
                        OFFSET  -0.010000   0.002000   0.060000
                    }
                }
            }
        }
    }
    JOINT pelvis_lowerback
    {
        OFFSET   0.000000   0.093605   0.000000
        CHANNELS 3 Yrotation Xrotation Zrotation
        JOINT lowerback_torso
        {
            OFFSET   0.000000   0.100000   0.000000
            CHANNELS 3 Yrotation Xrotation Zrotation
            JOINT torso_head
            {
                OFFSET   0.000000   0.282350   0.000000
                CHANNELS 3 Yrotation Xrotation Zrotation
                End Site
                {
                    OFFSET   0.000000   0.192650   0.000000
                }
            }
            JOINT lTorso_Clavicle
            {
                OFFSET   0.001000   0.157500   0.000000
                CHANNELS 3 Yrotation Xrotation Zrotation
                JOINT lShoulder
                {
                    OFFSET   0.117647   0.000000   0.000000
                    CHANNELS 3 Yrotation Xrotation Zrotation
                    JOINT lElbow
                    {
                        OFFSET   0.245000   0.000000   0.000000
                        CHANNELS 3 Yrotation Xrotation Zrotation
                        JOINT lWrist
                        {
                            OFFSET   0.240000   0.000000   0.000000
                            CHANNELS 3 Yrotation Xrotation Zrotation
                            End Site
                            {
                                OFFSET   0.116353  -0.002500   0.000000
                            }
                        }
                    }
                }
            }
            JOINT rTorso_Clavicle
            {
                OFFSET  -0.001000   0.157500   0.000000
                CHANNELS 3 Yrotation Xrotation Zrotation
                JOINT rShoulder
                {
                    OFFSET  -0.117647   0.000000   0.000000
                    CHANNELS 3 Yrotation Xrotation Zrotation
                    JOINT rElbow
                    {
                        OFFSET  -0.245000   0.000000   0.000000
                        CHANNELS 3 Yrotation Xrotation Zrotation
                        JOINT rWrist
                        {
                            OFFSET  -0.240000   0.000000   0.000000
                            CHANNELS 3 Yrotation Xrotation Zrotation
                            End Site
                            {
                                OFFSET  -0.116353  -0.002500   0.000000
                            }
                        }
                    }
                }
            }
        }
    }
}
MOTION
Frames: 5
Frame Time:   0.008333
 -2.554229   0.921917  -0.491680 -32.688319   6.098310  -1.435471   4.809403 -12.185338  -1.909427   0.000000  20.867600   0.000000  -3.246564  -3.586142   9.226387   0.000000  -7.234300   0.000000 -16.089264 -23.075194  -5.361622   0.000000  67.510500   0.000000  -2.236322   4.972937   7.514446   0.000000  -8.135400   0.000000   4.652409  -4.689567  -2.914700  -0.777407  -0.243478   1.573004  28.339772   2.029009   2.131879  10.489650  -1.180049   7.973128 -11.816802   3.760031 -87.234148 -15.511100  -0.000096   0.000027  -7.085632   6.525022  15.062033  -3.259399  -9.694990  -7.701031  23.137850   7.355931  84.227866  25.922400  -0.000090  -0.000044   0.693750   4.914341 -17.202266
 -2.560937   0.922054  -0.489893 -31.803234   6.030908  -1.526522   4.245544 -11.961339  -1.403840   0.000000  21.038200   0.000000  -3.575044  -3.817770   9.177246   0.000000  -7.241100   0.000000 -15.508445 -23.247623  -5.813836   0.000000  66.343500   0.000000  -3.294297   4.256688   7.192413   0.000000  -8.206650   0.000000   4.624623  -4.690747  -2.930208  -0.800308  -0.249976   1.713492  27.863995   1.920943   2.332067  10.607378  -1.154337   7.935534 -12.575931   3.175995 -87.638120 -15.784900  -0.000096   0.000027  -6.977134   7.044875  15.035087  -3.346380  -9.616882  -7.589838  22.928636   7.283734  84.292228  26.073800  -0.000090  -0.000044   0.693048   4.816749 -17.282603
 -2.567550   0.922138  -0.488434 -30.976171   6.024553  -1.557182   3.909077 -11.845959  -0.953055   0.000000  21.278900   0.000000  -4.116190  -4.048657   9.019016   0.000000  -7.275700   0.000000 -14.771159 -23.471772  -6.323862   0.000000  65.072400   0.000000  -4.366577   3.567250   7.020086   0.000000  -8.195850   0.000000   4.626357  -4.694922  -2.991488  -0.793011  -0.302971   1.791494  27.450817   1.704100   2.513926  10.598747  -1.146702   7.924342 -13.022398   2.671195 -88.031646 -16.101800  -0.000096   0.000028  -6.914607   7.660449  15.033648  -3.428603  -9.512855  -7.430700  22.764395   7.153002  84.315705  26.147500  -0.000090  -0.000044   0.764926   4.749179 -17.389765
 -2.574350   0.922107  -0.487026 -30.101371   6.012924  -1.733200   3.610591 -11.705963  -0.357281   0.000000  21.455200   0.000000  -4.688408  -4.345559   8.961239   0.000000  -7.292300   0.000000 -14.066429 -23.547641  -6.670547   0.000000  63.629100   0.000000  -5.483633   2.979037   6.641441   0.000000  -8.191500   0.000000   4.563862  -4.682074  -2.963118  -0.851118  -0.372859   1.992239  27.055614   1.520335   2.672620  10.740635  -0.962933   7.856854 -13.719601   1.985825 -88.329703 -16.387100  -0.000096   0.000028  -6.865337   7.904345  15.112523  -3.469137  -9.599705  -7.410886  22.869848   7.116479  84.473573  26.131800  -0.000090  -0.000044   0.860145   4.661577 -17.538591
 -2.580899   0.921999  -0.485597 -29.287060   6.058955  -1.696443   3.336183 -11.545927   0.006726   0.000000  21.489300   0.000000  -5.188186  -4.576346   9.037880   0.000000  -7.262650   0.000000 -13.255455 -23.698089  -7.283197   0.000000  62.095700   0.000000  -6.472110   2.401721   6.188224   0.000000  -8.158200   0.000000   4.564284  -4.700613  -3.071927  -0.844527  -0.461350   1.995201  26.518898   1.390501   2.800366  10.604787  -0.887383   7.878561 -13.901928   1.540828 -88.682620 -16.792700  -0.000096   0.000029  -6.801886   8.358498  15.200062  -3.540685  -9.535799  -7.191309  22.858487   7.092305  84.437235  26.327800  -0.000090  -0.000044   0.687485   4.672265 -17.614898
